<svg fill="none" viewBox="0 0 56 48" xmlns="http://www.w3.org/2000/svg">
<path d="m49.6 3.6c0.7666 0.4 1 1.1667 1.0666 1.4667v0.03333c0.0334 0.13333 0.0667 0.26667 0.0667 0.4l1.5667 8.7c0.0333 0.1 0.0333 0.2333 0 0.3333v0.1c0 0.7667-0.6334 1.4-1.4 1.4-0.6667 0-1.2-0.4333-1.3334-1.0666l-1.3-6.1s-3.5 6.1-7.3333 12.767l-0.2333 0.4334-0.2334 0.4333c-0.0333 0.0667-0.0666 0.1333-0.1333 0.2l-0.2667 0.4333-0.7666 1.3-0.1334 0.2-0.2333 0.4c-0.0667 0.1334-0.1667 0.2667-0.2333 0.4l-0.2334 0.4c-0.2 0.3334-0.3666 0.6334-0.5666 0.9667l-0.2334 0.4c-3.3 5.7-6.2 10.7-6.7333 11.467-0.4 0.7333-1.2 1.2-2.0667 1.2-0.8333 0-1.6-0.4334-2-1.1-0.0333-0.0334-0.0333-0.0334-0.0666-0.0667-0.2-0.3-0.4334-0.6333-0.7-1.0333l-0.3-0.4667c-0.9-1.3667-2.0334-3.0667-3.2-4.8l-0.3334-0.5c-1.4666-2.2-2.9333-4.4-3.9333-5.9l-0.1333-0.2333c-0.6-0.9-1.0334-1.5334-1.1334-1.6667-0.0333-0.0333-0.1666-0.1667-0.3666-0.2h-0.0667c-0.0667 0-0.3333 0.0333-0.5 0.3333-0.6 1.1334-1.9667 3.8667-3.4 6.6667l-0.2 0.4c-0.3 0.5667-0.5667 1.1333-0.8333 1.6667l-0.1334 0.2666c-1.6333 3.2-3.0333 6.0334-3.1333 6.1-0.2 0.3-0.56667 0.5334-1 0.5334-0.66667 0-1.2-0.5334-1.2-1.2 0-0.2334 0.06667-0.4334 0.16667-0.6334l8.4333-17.2c0.4333-0.6 0.9-0.7666 1.5-0.8 0.7333-0.0333 1.1333 0.3334 1.5 0.8 0.1333 0.2 1.9 2.5667 3.9333 5.3334l0.1667 0.2333c0.1 0.1667 0.2333 0.3 0.3333 0.4667l0.1667 0.2333c0.0667 0.0667 0.1 0.1667 0.1667 0.2333l0.1666 0.2334 0.1667 0.2333 0.2667 0.3667 0.2333 0.3333c1.8 2.4 3.5333 4.7667 4.4333 5.9333 0.4 0.5334 0.7667 0.5667 0.8334 0.5667h0.0666c0.1334 0 0.5334-0.0667 0.8-0.5 1.0667-1.8333 3.5667-6.4 6.2667-11.3l0.2-0.4c0.1333-0.2667 0.2667-0.5333 0.4333-0.7667l0.8334-1.5333c0.0666-0.1333 0.1333-0.2667 0.2333-0.4l0.2333-0.4c0.1-0.2 0.2334-0.4 0.3334-0.6l0.2333-0.4c3.2667-6.0333 6.2-11.4 6.3333-11.633l-5.1666 1.4667c-0.1667 0.06667-0.3334 0.1-0.5 0.1-0.7667 0-1.4-0.63333-1.4-1.4 0-0.7 0.5333-1.2667 1.2-1.3667l8.5666-2.2c0.3-0.13334 0.6334-0.2 0.9667-0.2h0.0667c0.4-0.13334 0.8-0.1 1.2 0.13333z" fill="#fff"/>
</svg>
